<svg width="20" height="18" viewBox="0 0 20 18" fill="none" xmlns="http://www.w3.org/2000/svg">
<path d="M10.2 8.52633C10.7232 8.52633 11.1474 8.10218 11.1474 7.57896C11.1474 7.05574 10.7232 6.63159 10.2 6.63159C9.67681 6.63159 9.25266 7.05574 9.25266 7.57896C9.25266 8.10218 9.67681 8.52633 10.2 8.52633Z" fill="#1B325F"/>
<path d="M13.9895 8.52633C14.5127 8.52633 14.9369 8.10218 14.9369 7.57896C14.9369 7.05574 14.5127 6.63159 13.9895 6.63159C13.4663 6.63159 13.0421 7.05574 13.0421 7.57896C13.0421 8.10218 13.4663 8.52633 13.9895 8.52633Z" fill="#1B325F"/>
<path d="M6.41053 8.52633C6.93375 8.52633 7.3579 8.10218 7.3579 7.57896C7.3579 7.05574 6.93375 6.63159 6.41053 6.63159C5.88732 6.63159 5.46317 7.05574 5.46317 7.57896C5.46317 8.10218 5.88732 8.52633 6.41053 8.52633Z" fill="#1B325F"/>
<path d="M16.8316 0H3.56841C2.81464 0 2.09173 0.299435 1.55874 0.832433C1.02574 1.36543 0.726303 2.08833 0.726303 2.84211V17.0526C0.726592 17.2205 0.771482 17.3853 0.856377 17.5301C0.941273 17.6749 1.06312 17.7946 1.20946 17.8768C1.35105 17.9571 1.51092 17.9995 1.67367 18C1.84371 18 2.0106 17.9541 2.15683 17.8674L6.41051 15.2905C6.56774 15.1969 6.74872 15.1509 6.93157 15.1579H16.8316C17.5853 15.1579 18.3082 14.8585 18.8412 14.3255C19.3742 13.7925 19.6737 13.0696 19.6737 12.3158V2.84211C19.6737 2.08833 19.3742 1.36543 18.8412 0.832433C18.3082 0.299435 17.5853 0 16.8316 0ZM17.7789 12.3158C17.7789 12.567 17.6791 12.808 17.5015 12.9857C17.3238 13.1633 17.0828 13.2632 16.8316 13.2632H6.93157C6.41414 13.2627 5.90641 13.4036 5.46315 13.6705L2.62104 15.3758V2.84211C2.62104 2.59085 2.72085 2.34988 2.89852 2.17221C3.07618 1.99455 3.31715 1.89474 3.56841 1.89474H16.8316C17.0828 1.89474 17.3238 1.99455 17.5015 2.17221C17.6791 2.34988 17.7789 2.59085 17.7789 2.84211V12.3158Z" fill="#1B325F"/>
</svg>
