<svg width="25" height="24" viewBox="0 0 25 24" fill="none" xmlns="http://www.w3.org/2000/svg">
<path fill-rule="evenodd" clip-rule="evenodd" d="M11.9861 1.21065C12.3472 0.929784 12.8528 0.929784 13.2139 1.21065L22.2139 8.21065C22.4575 8.4001 22.6 8.69141 22.6 9V20C22.6 20.7957 22.2839 21.5587 21.7213 22.1213C21.1587 22.6839 20.3957 23 19.6 23H5.60001C4.80436 23 4.04129 22.6839 3.47869 22.1213C2.91608 21.5587 2.60001 20.7957 2.60001 20V9C2.60001 8.69141 2.74248 8.4001 2.98607 8.21065L11.9861 1.21065ZM4.60001 9.48908V20C4.60001 20.2652 4.70536 20.5196 4.8929 20.7071C5.08044 20.8946 5.33479 21 5.60001 21H19.6C19.8652 21 20.1196 20.8946 20.3071 20.7071C20.4946 20.5196 20.6 20.2652 20.6 20V9.48908L12.6 3.26686L4.60001 9.48908Z" fill="#1B325F"/>
<path fill-rule="evenodd" clip-rule="evenodd" d="M8.60001 12C8.60001 11.4477 9.04772 11 9.60001 11H15.6C16.1523 11 16.6 11.4477 16.6 12V22C16.6 22.5523 16.1523 23 15.6 23C15.0477 23 14.6 22.5523 14.6 22V13H10.6V22C10.6 22.5523 10.1523 23 9.60001 23C9.04772 23 8.60001 22.5523 8.60001 22V12Z" fill="#1B325F"/>
</svg>
