<svg width="21" height="20" viewBox="0 0 21 20" fill="none" xmlns="http://www.w3.org/2000/svg">
<path fill-rule="evenodd" clip-rule="evenodd" d="M4.12037 12.887C4.90178 12.1056 5.96158 11.6667 7.06665 11.6667H13.7333C14.8384 11.6667 15.8982 12.1056 16.6796 12.887C17.461 13.6684 17.9 14.7283 17.9 15.8333V17.5C17.9 17.9602 17.5269 18.3333 17.0667 18.3333C16.6064 18.3333 16.2333 17.9602 16.2333 17.5V15.8333C16.2333 15.1703 15.9699 14.5344 15.5011 14.0656C15.0322 13.5967 14.3964 13.3333 13.7333 13.3333H7.06665C6.40361 13.3333 5.76773 13.5967 5.29889 14.0656C4.83004 14.5344 4.56665 15.1703 4.56665 15.8333V17.5C4.56665 17.9602 4.19356 18.3333 3.73332 18.3333C3.27308 18.3333 2.89999 17.9602 2.89999 17.5V15.8333C2.89999 14.7283 3.33897 13.6684 4.12037 12.887Z" fill="#484C52"/>
<path fill-rule="evenodd" clip-rule="evenodd" d="M10.4 3.33332C9.01927 3.33332 7.89999 4.45261 7.89999 5.83332C7.89999 7.21403 9.01927 8.33332 10.4 8.33332C11.7807 8.33332 12.9 7.21403 12.9 5.83332C12.9 4.45261 11.7807 3.33332 10.4 3.33332ZM6.23332 5.83332C6.23332 3.53214 8.0988 1.66666 10.4 1.66666C12.7012 1.66666 14.5667 3.53214 14.5667 5.83332C14.5667 8.13451 12.7012 9.99999 10.4 9.99999C8.0988 9.99999 6.23332 8.13451 6.23332 5.83332Z" fill="#484C52"/>
</svg>
